{
	"asset":{
		"generator":"Khronos glTF Blender I/O v4.5.47",
		"version":"2.0"
	},
	"scene":0,
	"scenes":[
		{
			"name":"Scene",
			"nodes":[
				0,
				1,
				2,
				3,
				4,
				5,
				6,
				7,
				8,
				9,
				10,
				11,
				12,
				13,
				14,
				16,
				17,
				18
			]
		}
	],
	"nodes":[
		{
			"name":"Node_1",
			"rotation":[
				-0.70710688829422,
				0,
				0,
				0.7071066498756409
			],
			"translation":[
				0.10458984225988388,
				-0.10711633414030075,
				0.18150591850280762
			]
		},
		{
			"name":"Node_3",
			"rotation":[
				-0.70710688829422,
				0,
				0,
				0.7071066498756409
			],
			"translation":[
				-0.2834101617336273,
				-0.3571164608001709,
				-0.20421282947063446
			]
		},
		{
			"name":"Node_5",
			"rotation":[
				-0.70710688829422,
				0,
				0,
				0.7071066498756409
			],
			"translation":[
				-0.2834101617336273,
				-0.3571164608001709,
				-0.20421282947063446
			]
		},
		{
			"name":"Node_7",
			"rotation":[
				-0.70710688829422,
				0,
				0,
				0.7071066498756409
			],
			"translation":[
				-0.2834101617336273,
				-0.3571164608001709,
				-0.20421282947063446
			]
		},
		{
			"name":"Node_9",
			"rotation":[
				-0.70710688829422,
				0,
				0,
				0.7071066498756409
			],
			"translation":[
				-0.2834101617336273,
				-0.3571164608001709,
				-0.2544940412044525
			]
		},
		{
			"name":"Node_11",
			"rotation":[
				-0.70710688829422,
				0,
				0,
				0.7071066498756409
			],
			"translation":[
				-0.2834101617336273,
				-0.3571164608001709,
				-0.20016592741012573
			]
		},
		{
			"name":"Node_13",
			"rotation":[
				-0.70710688829422,
				0,
				0,
				0.7071066498756409
			],
			"translation":[
				-0.2834101617336273,
				-0.3571164608001709,
				-0.2544940412044525
			]
		},
		{
			"name":"Node_15",
			"rotation":[
				-0.70710688829422,
				0,
				0,
				0.7071066498756409
			],
			"translation":[
				-0.2834101617336273,
				-0.3571164608001709,
				-0.2544940412044525
			]
		},
		{
			"name":"Node_17",
			"rotation":[
				-0.70710688829422,
				0,
				0,
				0.7071066498756409
			],
			"translation":[
				-0.2834101617336273,
				-0.3571164608001709,
				-0.20215030014514923
			]
		},
		{
			"name":"Node_19",
			"rotation":[
				-0.70710688829422,
				0,
				0,
				0.7071066498756409
			],
			"translation":[
				0.10458984225988388,
				0.1686723679304123,
				0.18150591850280762
			]
		},
		{
			"name":"Node_21",
			"rotation":[
				-0.70710688829422,
				0,
				0,
				0.7071066498756409
			],
			"scale":[
				1.12279212474823,
				1.108757495880127,
				1.0285381078720093
			],
			"translation":[
				-0.1588476598262787,
				0.06201653927564621,
				0.23363544046878815
			]
		},
		{
			"name":"Node_23",
			"rotation":[
				-0.70710688829422,
				0,
				0,
				0.7071066498756409
			],
			"translation":[
				-0.2834101617336273,
				-0.3571164608001709,
				-0.20368148386478424
			]
		},
		{
			"name":"Node_25",
			"rotation":[
				-0.70710688829422,
				0,
				0,
				0.7071066498756409
			],
			"translation":[
				-0.2834101617336273,
				-0.3571164608001709,
				-0.20368148386478424
			]
		},
		{
			"name":"Node_27",
			"rotation":[
				-0.70710688829422,
				0,
				0,
				0.7071066498756409
			],
			"translation":[
				-0.2834101617336273,
				-0.3571164608001709,
				-0.20368148386478424
			]
		},
		{
			"name":"Node_29",
			"rotation":[
				-0.70710688829422,
				0,
				0,
				0.7071066498756409
			],
			"translation":[
				-2.0446777853067033e-06,
				0.19076910614967346,
				-0.09479335695505142
			]
		},
		{
			"mesh":0,
			"name":"Obj_ Rose 60_\u0444\u043e\u0441\u0442\u0435\u0440_14",
			"scale":[
				0.0010000000474974513,
				0.0009999999310821295,
				0.0009999999310821295
			]
		},
		{
			"children":[
				15
			],
			"name":"Node_31",
			"rotation":[
				-0.70710688829422,
				0,
				0,
				0.7071066498756409
			],
			"scale":[
				0.7474294304847717,
				1,
				1
			],
			"translation":[
				2.7343750844011083e-05,
				0.19076912105083466,
				-0.14212174713611603
			]
		},
		{
			"name":"Node_33",
			"rotation":[
				-0.70710688829422,
				0,
				0,
				0.7071066498756409
			],
			"translation":[
				2.7343750844011083e-05,
				0.19076910614967346,
				-0.10225827246904373
			]
		},
		{
			"name":"Node_35",
			"rotation":[
				-0.70710688829422,
				0,
				0,
				0.7071066498756409
			],
			"translation":[
				0,
				0.16570468246936798,
				-0.2620239555835724
			]
		}
	],
	"materials":[
		{
			"doubleSided":true,
			"name":"Material.001",
			"pbrMetallicRoughness":{
				"baseColorFactor":[
					0.800000011920929,
					0.800000011920929,
					0.800000011920929,
					1
				],
				"metallicFactor":0,
				"roughnessFactor":0.5
			}
		},
		{
			"doubleSided":true,
			"name":"Material.002",
			"pbrMetallicRoughness":{
				"baseColorFactor":[
					0.800000011920929,
					0.800000011920929,
					0.800000011920929,
					1
				],
				"roughnessFactor":0.5
			}
		},
		{
			"doubleSided":true,
			"name":"Material.003",
			"pbrMetallicRoughness":{
				"metallicFactor":0,
				"roughnessFactor":0.09574468433856964
			}
		}
	],
	"meshes":[
		{
			"name":"Obj_ Rose 60_\u0444\u043e\u0441\u0442\u0435\u0440_14",
			"primitives":[
				{
					"attributes":{
						"POSITION":0,
						"NORMAL":1
					},
					"indices":2,
					"material":0
				},
				{
					"attributes":{
						"POSITION":3,
						"NORMAL":4
					},
					"indices":5,
					"material":1
				},
				{
					"attributes":{
						"POSITION":6,
						"NORMAL":7
					},
					"indices":8,
					"material":2
				}
			]
		}
	],
	"accessors":[
		{
			"bufferView":0,
			"componentType":5126,
			"count":185347,
			"max":[
				378.49517822265625,
				61.75520324707031,
				138.38162231445312
			],
			"min":[
				-379.2164306640625,
				-331.6275939941406,
				-547.8854370117188
			],
			"type":"VEC3"
		},
		{
			"bufferView":1,
			"componentType":5126,
			"count":185347,
			"type":"VEC3"
		},
		{
			"bufferView":2,
			"componentType":5125,
			"count":535266,
			"type":"SCALAR"
		},
		{
			"bufferView":3,
			"componentType":5126,
			"count":213391,
			"max":[
				34.18565368652344,
				13.468635559082031,
				166.34756469726562
			],
			"min":[
				-34.265106201171875,
				-172.33322143554688,
				-61.92443084716797
			],
			"type":"VEC3"
		},
		{
			"bufferView":4,
			"componentType":5126,
			"count":213391,
			"type":"VEC3"
		},
		{
			"bufferView":5,
			"componentType":5125,
			"count":1045632,
			"type":"SCALAR"
		},
		{
			"bufferView":6,
			"componentType":5126,
			"count":24834,
			"max":[
				405.71826171875,
				61.601104736328125,
				12.80383014678955
			],
			"min":[
				-405.7976989746094,
				-345.9986572265625,
				-113.66455841064453
			],
			"type":"VEC3"
		},
		{
			"bufferView":7,
			"componentType":5126,
			"count":24834,
			"type":"VEC3"
		},
		{
			"bufferView":8,
			"componentType":5123,
			"count":140544,
			"type":"SCALAR"
		}
	],
	"bufferViews":[
		{
			"buffer":0,
			"byteLength":2224164,
			"byteOffset":0,
			"target":34962
		},
		{
			"buffer":0,
			"byteLength":2224164,
			"byteOffset":2224164,
			"target":34962
		},
		{
			"buffer":0,
			"byteLength":2141064,
			"byteOffset":4448328,
			"target":34963
		},
		{
			"buffer":0,
			"byteLength":2560692,
			"byteOffset":6589392,
			"target":34962
		},
		{
			"buffer":0,
			"byteLength":2560692,
			"byteOffset":9150084,
			"target":34962
		},
		{
			"buffer":0,
			"byteLength":4182528,
			"byteOffset":11710776,
			"target":34963
		},
		{
			"buffer":0,
			"byteLength":298008,
			"byteOffset":15893304,
			"target":34962
		},
		{
			"buffer":0,
			"byteLength":298008,
			"byteOffset":16191312,
			"target":34962
		},
		{
			"buffer":0,
			"byteLength":281088,
			"byteOffset":16489320,
			"target":34963
		}
	],
	"buffers":[
		{
			"byteLength":16770408,
			"uri":"test.bin"
		}
	]
}
